<?xml version="1.0" standalone="no"?>
<!DOCTYPE svg PUBLIC "-//W3C//DTD SVG 20010904//EN"
 "http://www.w3.org/TR/2001/REC-SVG-20010904/DTD/svg10.dtd">
<svg version="1.0" xmlns="http://www.w3.org/2000/svg"
 width="512.000000pt" height="512.000000pt" viewBox="0 0 512.000000 512.000000"
 preserveAspectRatio="xMidYMid meet">
<metadata>
Created by potrace 1.14, written by Peter Selinger 2001-2017
</metadata>
<g transform="translate(0.000000,512.000000) scale(0.100000,-0.100000)"
fill="#000000" stroke="none">
<path d="M1325 4439 c-387 -26 -664 -100 -812 -217 -49 -40 -83 -98 -68 -121
6 -11 5 -11 -230 -70 -141 -35 -163 -44 -188 -71 l-27 -31 2 -1604 3 -1605 28
-27 c39 -39 49 -39 462 8 94 10 193 21 220 24 28 3 66 8 85 10 19 3 123 14
230 25 107 12 206 23 220 25 14 2 52 6 85 10 33 3 76 8 95 10 19 2 82 9 140
15 58 6 122 13 143 15 20 3 54 7 75 10 20 2 84 9 141 15 l103 11 49 -49 c102
-103 241 -152 449 -158 108 -3 153 0 225 16 118 26 222 78 285 142 l50 50 52
-6 c29 -3 76 -8 103 -11 56 -6 137 -15 175 -20 14 -2 52 -6 85 -10 33 -3 78
-8 100 -10 22 -3 63 -7 90 -10 73 -8 136 -15 170 -20 17 -2 57 -7 90 -10 33
-3 119 -12 190 -21 72 -8 153 -17 180 -20 28 -2 66 -7 85 -9 19 -2 60 -7 90
-10 30 -3 71 -8 90 -10 72 -9 117 -14 185 -21 39 -3 77 -8 85 -9 8 -2 49 -6
90 -10 90 -8 123 2 150 47 20 33 20 52 20 1625 l0 1593 -27 30 c-25 28 -47 36
-208 76 -99 24 -186 48 -194 52 -8 5 -15 17 -16 28 -5 58 -43 98 -141 147 -88
44 -331 113 -464 132 -25 3 -52 8 -60 10 -8 3 -40 7 -70 10 -30 3 -62 7 -70
10 -33 9 -221 20 -335 20 -387 -2 -714 -59 -918 -161 -62 -31 -70 -33 -90 -19
-54 35 -368 120 -517 140 -114 15 -194 25 -245 31 -86 9 -323 11 -440 3z"/>
</g>
</svg>
